<svg width="280" height="90" viewBox="0 0 280 90" fill="none" xmlns="http://www.w3.org/2000/svg">
<rect width="280" height="90" fill="url(#paint0_radial_111_282)"/>
<path d="M44.5532 43.504C44.5532 41.84 44.8972 40.36 45.5852 39.064C46.2892 37.752 47.2812 36.736 48.5612 36.016C49.8412 35.28 51.3132 34.912 52.9772 34.912C55.0892 34.912 56.8652 35.48 58.3052 36.616C59.7452 37.736 60.6732 39.264 61.0892 41.2H56.0252C55.7212 40.56 55.2972 40.072 54.7532 39.736C54.2252 39.4 53.6092 39.232 52.9052 39.232C51.8172 39.232 50.9452 39.624 50.2892 40.408C49.6492 41.176 49.3292 42.208 49.3292 43.504C49.3292 44.816 49.6492 45.864 50.2892 46.648C50.9452 47.416 51.8172 47.8 52.9052 47.8C53.6092 47.8 54.2252 47.632 54.7532 47.296C55.2972 46.96 55.7212 46.472 56.0252 45.832H61.0892C60.6732 47.768 59.7452 49.304 58.3052 50.44C56.8652 51.56 55.0892 52.12 52.9772 52.12C51.3132 52.12 49.8412 51.76 48.5612 51.04C47.2812 50.304 46.2892 49.288 45.5852 47.992C44.8972 46.68 44.5532 45.184 44.5532 43.504ZM68.0207 34.24V52H63.3167V34.24H68.0207ZM73.0755 37.288C72.2435 37.288 71.5715 37.064 71.0595 36.616C70.5635 36.152 70.3155 35.576 70.3155 34.888C70.3155 34.184 70.5635 33.6 71.0595 33.136C71.5715 32.672 72.2435 32.44 73.0755 32.44C73.8915 32.44 74.5475 32.672 75.0435 33.136C75.5555 33.6 75.8115 34.184 75.8115 34.888C75.8115 35.576 75.5555 36.152 75.0435 36.616C74.5475 37.064 73.8915 37.288 73.0755 37.288ZM75.4035 38.536V52H70.6995V38.536H75.4035ZM77.3143 45.256C77.3143 43.864 77.6023 42.648 78.1783 41.608C78.7543 40.568 79.5543 39.768 80.5783 39.208C81.6183 38.648 82.8023 38.368 84.1303 38.368C85.8423 38.368 87.2823 38.84 88.4503 39.784C89.6183 40.712 90.3703 42.016 90.7063 43.696H85.7143C85.4263 42.816 84.8663 42.376 84.0343 42.376C83.4423 42.376 82.9703 42.624 82.6183 43.12C82.2823 43.6 82.1143 44.312 82.1143 45.256C82.1143 46.2 82.2823 46.92 82.6183 47.416C82.9703 47.912 83.4423 48.16 84.0343 48.16C84.8823 48.16 85.4423 47.72 85.7143 46.84H90.7063C90.3703 48.504 89.6183 49.808 88.4503 50.752C87.2823 51.696 85.8423 52.168 84.1303 52.168C82.8023 52.168 81.6183 51.888 80.5783 51.328C79.5543 50.768 78.7543 49.968 78.1783 48.928C77.6023 47.888 77.3143 46.664 77.3143 45.256ZM101.084 52L97.3644 46.48V52H92.6604V34.24H97.3644V43.816L101.084 38.536H106.724L101.42 45.304L106.82 52H101.084ZM125.537 35.08V38.824H121.025V52H116.321V38.824H111.857V35.08H125.537ZM133.542 52.168C132.198 52.168 130.99 51.888 129.918 51.328C128.862 50.768 128.03 49.968 127.422 48.928C126.814 47.888 126.51 46.664 126.51 45.256C126.51 43.864 126.814 42.648 127.422 41.608C128.046 40.568 128.886 39.768 129.942 39.208C131.014 38.648 132.222 38.368 133.566 38.368C134.91 38.368 136.11 38.648 137.166 39.208C138.238 39.768 139.078 40.568 139.686 41.608C140.31 42.648 140.622 43.864 140.622 45.256C140.622 46.648 140.31 47.872 139.686 48.928C139.078 49.968 138.238 50.768 137.166 51.328C136.094 51.888 134.886 52.168 133.542 52.168ZM133.542 48.088C134.198 48.088 134.742 47.848 135.174 47.368C135.622 46.872 135.846 46.168 135.846 45.256C135.846 44.344 135.622 43.648 135.174 43.168C134.742 42.688 134.206 42.448 133.566 42.448C132.926 42.448 132.39 42.688 131.958 43.168C131.526 43.648 131.31 44.344 131.31 45.256C131.31 46.184 131.518 46.888 131.934 47.368C132.35 47.848 132.886 48.088 133.542 48.088ZM153.513 52.168C151.545 52.168 149.929 51.704 148.665 50.776C147.401 49.832 146.721 48.488 146.625 46.744H151.641C151.689 47.336 151.865 47.768 152.169 48.04C152.473 48.312 152.865 48.448 153.345 48.448C153.777 48.448 154.129 48.344 154.401 48.136C154.689 47.912 154.833 47.608 154.833 47.224C154.833 46.728 154.601 46.344 154.137 46.072C153.673 45.8 152.921 45.496 151.881 45.16C150.777 44.792 149.881 44.44 149.193 44.104C148.521 43.752 147.929 43.248 147.417 42.592C146.921 41.92 146.673 41.048 146.673 39.976C146.673 38.888 146.945 37.96 147.489 37.192C148.033 36.408 148.785 35.816 149.745 35.416C150.705 35.016 151.793 34.816 153.009 34.816C154.977 34.816 156.545 35.28 157.713 36.208C158.897 37.12 159.529 38.408 159.609 40.072H154.497C154.481 39.56 154.321 39.176 154.017 38.92C153.729 38.664 153.353 38.536 152.889 38.536C152.537 38.536 152.249 38.64 152.025 38.848C151.801 39.056 151.689 39.352 151.689 39.736C151.689 40.056 151.809 40.336 152.049 40.576C152.305 40.8 152.617 41 152.985 41.176C153.353 41.336 153.897 41.544 154.617 41.8C155.689 42.168 156.569 42.536 157.257 42.904C157.961 43.256 158.561 43.76 159.057 44.416C159.569 45.056 159.825 45.872 159.825 46.864C159.825 47.872 159.569 48.776 159.057 49.576C158.561 50.376 157.833 51.008 156.873 51.472C155.929 51.936 154.809 52.168 153.513 52.168ZM175.788 38.536V52H171.06V50.08C170.66 50.688 170.108 51.184 169.404 51.568C168.7 51.936 167.892 52.12 166.98 52.12C165.412 52.12 164.172 51.608 163.26 50.584C162.364 49.544 161.916 48.136 161.916 46.36V38.536H166.596V45.76C166.596 46.528 166.796 47.136 167.196 47.584C167.612 48.016 168.156 48.232 168.828 48.232C169.516 48.232 170.06 48.016 170.46 47.584C170.86 47.136 171.06 46.528 171.06 45.76V38.536H175.788ZM183.169 40.408C183.537 39.768 184.057 39.272 184.729 38.92C185.401 38.552 186.193 38.368 187.105 38.368C188.177 38.368 189.145 38.648 190.009 39.208C190.889 39.768 191.577 40.568 192.073 41.608C192.585 42.648 192.841 43.864 192.841 45.256C192.841 46.648 192.585 47.872 192.073 48.928C191.577 49.968 190.889 50.768 190.009 51.328C189.145 51.888 188.177 52.168 187.105 52.168C186.193 52.168 185.401 51.992 184.729 51.64C184.057 51.272 183.537 50.768 183.169 50.128V52H178.465V34.24H183.169V40.408ZM188.065 45.256C188.065 44.376 187.825 43.696 187.345 43.216C186.881 42.72 186.305 42.472 185.617 42.472C184.929 42.472 184.345 42.72 183.865 43.216C183.401 43.712 183.169 44.392 183.169 45.256C183.169 46.136 183.401 46.824 183.865 47.32C184.345 47.816 184.929 48.064 185.617 48.064C186.305 48.064 186.881 47.816 187.345 47.32C187.825 46.808 188.065 46.12 188.065 45.256ZM212.37 38.416C214.066 38.416 215.394 38.928 216.354 39.952C217.33 40.976 217.818 42.376 217.818 44.152V52H213.114V44.776C213.114 44.056 212.914 43.496 212.514 43.096C212.114 42.696 211.57 42.496 210.882 42.496C210.194 42.496 209.65 42.696 209.25 43.096C208.85 43.496 208.65 44.056 208.65 44.776V52H203.946V44.776C203.946 44.056 203.746 43.496 203.346 43.096C202.962 42.696 202.426 42.496 201.738 42.496C201.034 42.496 200.482 42.696 200.082 43.096C199.682 43.496 199.482 44.056 199.482 44.776V52H194.778V38.536H199.482V40.312C199.898 39.736 200.434 39.28 201.09 38.944C201.762 38.592 202.53 38.416 203.394 38.416C204.386 38.416 205.266 38.632 206.034 39.064C206.818 39.496 207.434 40.104 207.882 40.888C208.362 40.152 208.994 39.56 209.778 39.112C210.562 38.648 211.426 38.416 212.37 38.416ZM222.771 37.288C221.939 37.288 221.267 37.064 220.755 36.616C220.259 36.152 220.011 35.576 220.011 34.888C220.011 34.184 220.259 33.6 220.755 33.136C221.267 32.672 221.939 32.44 222.771 32.44C223.587 32.44 224.243 32.672 224.739 33.136C225.251 33.6 225.507 34.184 225.507 34.888C225.507 35.576 225.251 36.152 224.739 36.616C224.243 37.064 223.587 37.288 222.771 37.288ZM225.099 38.536V52H220.395V38.536H225.099ZM235.722 47.992V52H233.682C230.242 52 228.522 50.296 228.522 46.888V42.448H226.866V38.536H228.522V35.272H233.25V38.536H235.698V42.448H233.25V46.96C233.25 47.328 233.33 47.592 233.49 47.752C233.666 47.912 233.954 47.992 234.354 47.992H235.722Z" fill="black"/>
<defs>
<radialGradient id="paint0_radial_111_282" cx="0" cy="0" r="1" gradientUnits="userSpaceOnUse" gradientTransform="translate(140 45) rotate(90) scale(45 140)">
<stop offset="0.9999" stop-color="white"/>
<stop offset="1" stop-opacity="0.820415"/>
</radialGradient>
</defs>
</svg>
