<svg width="164" height="45" viewBox="0 0 164 45" fill="none" xmlns="http://www.w3.org/2000/svg">
<rect x="0.5" y="0.47998" width="162.63" height="44" rx="22" fill="url(#paint0_radial_111_200)"/>
<path d="M34.688 27.076C34.08 27.076 33.572 27.036 33.164 26.956C32.756 26.876 32.424 26.74 32.168 26.548C31.912 26.356 31.716 26.1 31.58 25.78C31.452 25.46 31.364 25.06 31.316 24.58C31.268 24.1 31.244 23.524 31.244 22.852C31.244 22.18 31.268 21.604 31.316 21.124C31.364 20.644 31.452 20.244 31.58 19.924C31.716 19.604 31.912 19.348 32.168 19.156C32.424 18.964 32.756 18.828 33.164 18.748C33.572 18.668 34.08 18.628 34.688 18.628C34.92 18.628 35.16 18.636 35.408 18.652C35.664 18.668 35.908 18.692 36.14 18.724C36.372 18.756 36.568 18.792 36.728 18.832V20.14C36.512 20.116 36.304 20.096 36.104 20.08C35.904 20.056 35.716 20.04 35.54 20.032C35.372 20.024 35.228 20.02 35.108 20.02C34.7 20.02 34.364 20.036 34.1 20.068C33.836 20.1 33.624 20.168 33.464 20.272C33.312 20.368 33.2 20.52 33.128 20.728C33.056 20.928 33.008 21.2 32.984 21.544C32.96 21.888 32.948 22.324 32.948 22.852C32.948 23.372 32.96 23.808 32.984 24.16C33.008 24.504 33.056 24.78 33.128 24.988C33.2 25.188 33.312 25.34 33.464 25.444C33.624 25.54 33.836 25.604 34.1 25.636C34.364 25.668 34.7 25.684 35.108 25.684C35.372 25.684 35.66 25.672 35.972 25.648C36.284 25.624 36.552 25.596 36.776 25.564V26.896C36.6 26.928 36.392 26.956 36.152 26.98C35.912 27.012 35.664 27.036 35.408 27.052C35.16 27.068 34.92 27.076 34.688 27.076ZM40.7995 27.076C40.2715 27.076 39.8315 27.044 39.4795 26.98C39.1275 26.916 38.8515 26.812 38.6515 26.668C38.4515 26.524 38.3035 26.332 38.2075 26.092C38.1195 25.852 38.0595 25.552 38.0275 25.192C38.0035 24.832 37.9915 24.404 37.9915 23.908C37.9915 23.412 38.0035 22.988 38.0275 22.636C38.0595 22.276 38.1195 21.976 38.2075 21.736C38.3035 21.496 38.4515 21.304 38.6515 21.16C38.8515 21.016 39.1275 20.916 39.4795 20.86C39.8315 20.796 40.2715 20.764 40.7995 20.764C41.3275 20.764 41.7635 20.796 42.1075 20.86C42.4595 20.916 42.7355 21.016 42.9355 21.16C43.1435 21.304 43.2915 21.496 43.3795 21.736C43.4755 21.976 43.5355 22.276 43.5595 22.636C43.5915 22.988 43.6075 23.412 43.6075 23.908C43.6075 24.404 43.5915 24.832 43.5595 25.192C43.5355 25.552 43.4755 25.852 43.3795 26.092C43.2915 26.332 43.1435 26.524 42.9355 26.668C42.7355 26.812 42.4595 26.916 42.1075 26.98C41.7635 27.044 41.3275 27.076 40.7995 27.076ZM40.7995 25.792C41.0955 25.792 41.3275 25.772 41.4955 25.732C41.6715 25.692 41.7915 25.612 41.8555 25.492C41.9275 25.364 41.9715 25.172 41.9875 24.916C42.0035 24.66 42.0115 24.324 42.0115 23.908C42.0115 23.492 42.0035 23.16 41.9875 22.912C41.9715 22.656 41.9275 22.468 41.8555 22.348C41.7915 22.22 41.6715 22.14 41.4955 22.108C41.3275 22.068 41.0955 22.048 40.7995 22.048C40.4955 22.048 40.2595 22.068 40.0915 22.108C39.9235 22.14 39.8035 22.22 39.7315 22.348C39.6595 22.468 39.6155 22.656 39.5995 22.912C39.5915 23.16 39.5875 23.492 39.5875 23.908C39.5875 24.324 39.5915 24.66 39.5995 24.916C39.6155 25.172 39.6595 25.364 39.7315 25.492C39.8035 25.612 39.9235 25.692 40.0915 25.732C40.2595 25.772 40.4955 25.792 40.7995 25.792ZM45.0981 26.98V20.86H46.5861L46.6341 21.628H46.7181C46.8221 21.436 46.9541 21.276 47.1141 21.148C47.2821 21.012 47.4781 20.916 47.7021 20.86C47.9341 20.796 48.1941 20.764 48.4821 20.764C48.9701 20.764 49.3381 20.836 49.5861 20.98C49.8421 21.116 50.0221 21.332 50.1261 21.628H50.2221C50.3261 21.436 50.4621 21.276 50.6301 21.148C50.8061 21.012 51.0101 20.916 51.2421 20.86C51.4741 20.796 51.7381 20.764 52.0341 20.764C52.5541 20.764 52.9421 20.856 53.1981 21.04C53.4541 21.216 53.6261 21.484 53.7141 21.844C53.8021 22.196 53.8461 22.632 53.8461 23.152V26.98H52.2621V23.74C52.2621 23.372 52.2501 23.08 52.2261 22.864C52.2021 22.648 52.1581 22.488 52.0941 22.384C52.0381 22.28 51.9461 22.216 51.8181 22.192C51.6901 22.16 51.5181 22.144 51.3021 22.144C51.0701 22.144 50.8821 22.176 50.7381 22.24C50.6021 22.296 50.4981 22.388 50.4261 22.516C50.3621 22.644 50.3181 22.816 50.2941 23.032C50.2781 23.24 50.2701 23.5 50.2701 23.812V26.98H48.6741V23.74C48.6741 23.372 48.6621 23.08 48.6381 22.864C48.6221 22.648 48.5821 22.488 48.5181 22.384C48.4541 22.28 48.3581 22.216 48.2301 22.192C48.1021 22.16 47.9341 22.144 47.7261 22.144C47.4941 22.144 47.3061 22.176 47.1621 22.24C47.0261 22.296 46.9221 22.388 46.8501 22.516C46.7861 22.644 46.7421 22.816 46.7181 23.032C46.6941 23.248 46.6821 23.508 46.6821 23.812V26.98H45.0981ZM55.5389 19.48V18.064H57.1829V19.48H55.5389ZM55.5629 26.98V20.86H57.1589V26.98H55.5629ZM58.8676 26.98V20.86H60.3556L60.4036 21.628H60.4996C60.6116 21.428 60.7476 21.264 60.9076 21.136C61.0756 21.008 61.2796 20.916 61.5196 20.86C61.7676 20.796 62.0476 20.764 62.3596 20.764C62.7756 20.764 63.1076 20.816 63.3556 20.92C63.6116 21.024 63.8076 21.176 63.9436 21.376C64.0796 21.576 64.1676 21.824 64.2076 22.12C64.2556 22.416 64.2796 22.76 64.2796 23.152V26.98H62.6956V23.74C62.6956 23.372 62.6836 23.08 62.6596 22.864C62.6356 22.648 62.5876 22.488 62.5156 22.384C62.4436 22.28 62.3356 22.216 62.1916 22.192C62.0476 22.16 61.8556 22.144 61.6156 22.144C61.3596 22.144 61.1516 22.176 60.9916 22.24C60.8396 22.296 60.7236 22.392 60.6436 22.528C60.5716 22.656 60.5196 22.828 60.4876 23.044C60.4636 23.252 60.4516 23.508 60.4516 23.812V26.98H58.8676ZM68.3329 29.452C68.0769 29.452 67.8129 29.444 67.5409 29.428C67.2769 29.42 67.0289 29.404 66.7969 29.38C66.5649 29.364 66.3729 29.34 66.2209 29.308V28.132C66.3809 28.14 66.5609 28.148 66.7609 28.156C66.9609 28.164 67.1649 28.168 67.3729 28.168C67.5809 28.168 67.7729 28.168 67.9489 28.168C68.3649 28.168 68.6889 28.148 68.9209 28.108C69.1529 28.068 69.3249 27.992 69.4369 27.88C69.5569 27.776 69.6329 27.616 69.6649 27.4C69.6969 27.192 69.7129 26.916 69.7129 26.572V26.212H69.6289C69.5169 26.42 69.3689 26.584 69.1849 26.704C69.0089 26.816 68.8089 26.892 68.5849 26.932C68.3689 26.972 68.1289 26.992 67.8649 26.992C67.4809 26.992 67.1529 26.944 66.8809 26.848C66.6169 26.752 66.4009 26.588 66.2329 26.356C66.0649 26.124 65.9449 25.808 65.8729 25.408C65.8009 25.008 65.7649 24.508 65.7649 23.908C65.7649 23.3 65.8009 22.796 65.8729 22.396C65.9529 21.988 66.0769 21.668 66.2449 21.436C66.4129 21.196 66.6289 21.024 66.8929 20.92C67.1569 20.816 67.4809 20.764 67.8649 20.764C68.0969 20.764 68.3289 20.788 68.5609 20.836C68.7929 20.876 69.0049 20.96 69.1969 21.088C69.3969 21.208 69.5569 21.388 69.6769 21.628H69.7609L69.8089 20.86H71.2969V26.26C71.2969 26.812 71.2689 27.288 71.2129 27.688C71.1569 28.096 71.0329 28.428 70.8409 28.684C70.6489 28.948 70.3529 29.14 69.9529 29.26C69.5609 29.388 69.0209 29.452 68.3329 29.452ZM68.5369 25.648C68.8009 25.648 69.0089 25.616 69.1609 25.552C69.3209 25.488 69.4409 25.388 69.5209 25.252C69.6009 25.108 69.6529 24.924 69.6769 24.7C69.7009 24.476 69.7129 24.208 69.7129 23.896C69.7129 23.592 69.7009 23.328 69.6769 23.104C69.6529 22.88 69.6009 22.696 69.5209 22.552C69.4409 22.4 69.3209 22.292 69.1609 22.228C69.0089 22.164 68.8009 22.132 68.5369 22.132C68.2729 22.132 68.0609 22.152 67.9009 22.192C67.7409 22.224 67.6209 22.3 67.5409 22.42C67.4689 22.532 67.4209 22.708 67.3969 22.948C67.3729 23.18 67.3609 23.496 67.3609 23.896C67.3609 24.296 67.3729 24.612 67.3969 24.844C67.4209 25.068 67.4689 25.24 67.5409 25.36C67.6209 25.472 67.7409 25.548 67.9009 25.588C68.0609 25.628 68.2729 25.648 68.5369 25.648ZM79.0013 27.076C78.6973 27.076 78.3613 27.068 77.9933 27.052C77.6333 27.036 77.2813 27.012 76.9373 26.98C76.5933 26.956 76.2773 26.928 75.9893 26.896V25.54C76.2853 25.564 76.5853 25.588 76.8893 25.612C77.2013 25.636 77.4973 25.656 77.7773 25.672C78.0573 25.68 78.2973 25.684 78.4973 25.684C78.9053 25.684 79.2213 25.668 79.4453 25.636C79.6693 25.596 79.8373 25.54 79.9493 25.468C80.0373 25.404 80.0973 25.336 80.1293 25.264C80.1613 25.184 80.1813 25.092 80.1893 24.988C80.1973 24.876 80.2013 24.752 80.2013 24.616C80.2013 24.432 80.1893 24.28 80.1653 24.16C80.1493 24.04 80.1173 23.948 80.0693 23.884C80.0213 23.812 79.9413 23.76 79.8293 23.728C79.7253 23.696 79.5893 23.672 79.4213 23.656L77.5733 23.428C77.2053 23.38 76.9013 23.296 76.6613 23.176C76.4293 23.056 76.2453 22.896 76.1093 22.696C75.9733 22.496 75.8773 22.26 75.8213 21.988C75.7733 21.716 75.7493 21.408 75.7493 21.064C75.7493 20.52 75.8253 20.088 75.9773 19.768C76.1293 19.448 76.3413 19.204 76.6133 19.036C76.8933 18.868 77.2213 18.76 77.5973 18.712C77.9733 18.656 78.3813 18.628 78.8213 18.628C79.1413 18.628 79.4693 18.64 79.8053 18.664C80.1413 18.68 80.4573 18.704 80.7533 18.736C81.0493 18.768 81.2973 18.808 81.4973 18.856V20.176C81.2973 20.144 81.0653 20.116 80.8013 20.092C80.5373 20.068 80.2613 20.052 79.9733 20.044C79.6853 20.028 79.4133 20.02 79.1573 20.02C78.7813 20.02 78.4813 20.036 78.2573 20.068C78.0413 20.092 77.8733 20.136 77.7533 20.2C77.6173 20.28 77.5333 20.384 77.5013 20.512C77.4773 20.64 77.4653 20.8 77.4653 20.992C77.4653 21.232 77.4813 21.416 77.5133 21.544C77.5453 21.664 77.6213 21.748 77.7413 21.796C77.8613 21.844 78.0493 21.884 78.3053 21.916L80.1533 22.132C80.3773 22.156 80.5853 22.196 80.7773 22.252C80.9693 22.308 81.1413 22.396 81.2933 22.516C81.4453 22.636 81.5693 22.804 81.6653 23.02C81.7213 23.132 81.7653 23.264 81.7973 23.416C81.8293 23.56 81.8533 23.724 81.8693 23.908C81.8933 24.092 81.9053 24.296 81.9053 24.52C81.9053 24.984 81.8573 25.372 81.7613 25.684C81.6733 25.996 81.5453 26.244 81.3773 26.428C81.2093 26.612 81.0013 26.752 80.7533 26.848C80.5133 26.944 80.2453 27.004 79.9493 27.028C79.6533 27.06 79.3373 27.076 79.0013 27.076ZM85.9987 27.076C85.4707 27.076 85.0307 27.044 84.6787 26.98C84.3267 26.916 84.0507 26.812 83.8507 26.668C83.6507 26.524 83.5027 26.332 83.4067 26.092C83.3187 25.852 83.2587 25.552 83.2267 25.192C83.2027 24.832 83.1907 24.404 83.1907 23.908C83.1907 23.412 83.2027 22.988 83.2267 22.636C83.2587 22.276 83.3187 21.976 83.4067 21.736C83.5027 21.496 83.6507 21.304 83.8507 21.16C84.0507 21.016 84.3267 20.916 84.6787 20.86C85.0307 20.796 85.4707 20.764 85.9987 20.764C86.5267 20.764 86.9627 20.796 87.3067 20.86C87.6587 20.916 87.9347 21.016 88.1347 21.16C88.3427 21.304 88.4907 21.496 88.5787 21.736C88.6747 21.976 88.7347 22.276 88.7587 22.636C88.7907 22.988 88.8067 23.412 88.8067 23.908C88.8067 24.404 88.7907 24.832 88.7587 25.192C88.7347 25.552 88.6747 25.852 88.5787 26.092C88.4907 26.332 88.3427 26.524 88.1347 26.668C87.9347 26.812 87.6587 26.916 87.3067 26.98C86.9627 27.044 86.5267 27.076 85.9987 27.076ZM85.9987 25.792C86.2947 25.792 86.5267 25.772 86.6947 25.732C86.8707 25.692 86.9907 25.612 87.0547 25.492C87.1267 25.364 87.1707 25.172 87.1867 24.916C87.2027 24.66 87.2107 24.324 87.2107 23.908C87.2107 23.492 87.2027 23.16 87.1867 22.912C87.1707 22.656 87.1267 22.468 87.0547 22.348C86.9907 22.22 86.8707 22.14 86.6947 22.108C86.5267 22.068 86.2947 22.048 85.9987 22.048C85.6947 22.048 85.4587 22.068 85.2907 22.108C85.1227 22.14 85.0027 22.22 84.9307 22.348C84.8587 22.468 84.8147 22.656 84.7987 22.912C84.7907 23.16 84.7867 23.492 84.7867 23.908C84.7867 24.324 84.7907 24.66 84.7987 24.916C84.8147 25.172 84.8587 25.364 84.9307 25.492C85.0027 25.612 85.1227 25.692 85.2907 25.732C85.4587 25.772 85.6947 25.792 85.9987 25.792ZM92.8893 27.076C92.3613 27.076 91.9213 27.044 91.5693 26.98C91.2173 26.916 90.9413 26.812 90.7413 26.668C90.5413 26.524 90.3933 26.332 90.2973 26.092C90.2093 25.852 90.1493 25.552 90.1173 25.192C90.0933 24.832 90.0813 24.404 90.0813 23.908C90.0813 23.412 90.0933 22.988 90.1173 22.636C90.1493 22.276 90.2093 21.976 90.2973 21.736C90.3933 21.496 90.5413 21.304 90.7413 21.16C90.9413 21.016 91.2173 20.916 91.5693 20.86C91.9213 20.796 92.3613 20.764 92.8893 20.764C93.4173 20.764 93.8533 20.796 94.1973 20.86C94.5493 20.916 94.8253 21.016 95.0253 21.16C95.2333 21.304 95.3813 21.496 95.4693 21.736C95.5653 21.976 95.6253 22.276 95.6493 22.636C95.6813 22.988 95.6973 23.412 95.6973 23.908C95.6973 24.404 95.6813 24.832 95.6493 25.192C95.6253 25.552 95.5653 25.852 95.4693 26.092C95.3813 26.332 95.2333 26.524 95.0253 26.668C94.8253 26.812 94.5493 26.916 94.1973 26.98C93.8533 27.044 93.4173 27.076 92.8893 27.076ZM92.8893 25.792C93.1853 25.792 93.4173 25.772 93.5853 25.732C93.7613 25.692 93.8813 25.612 93.9453 25.492C94.0173 25.364 94.0613 25.172 94.0773 24.916C94.0933 24.66 94.1013 24.324 94.1013 23.908C94.1013 23.492 94.0933 23.16 94.0773 22.912C94.0613 22.656 94.0173 22.468 93.9453 22.348C93.8813 22.22 93.7613 22.14 93.5853 22.108C93.4173 22.068 93.1853 22.048 92.8893 22.048C92.5853 22.048 92.3493 22.068 92.1813 22.108C92.0133 22.14 91.8933 22.22 91.8213 22.348C91.7493 22.468 91.7053 22.656 91.6893 22.912C91.6813 23.16 91.6773 23.492 91.6773 23.908C91.6773 24.324 91.6813 24.66 91.6893 24.916C91.7053 25.172 91.7493 25.364 91.8213 25.492C91.8933 25.612 92.0133 25.692 92.1813 25.732C92.3493 25.772 92.5853 25.792 92.8893 25.792ZM97.1879 26.98V20.86H98.6759L98.7239 21.628H98.8199C98.9319 21.428 99.0679 21.264 99.2279 21.136C99.3959 21.008 99.5999 20.916 99.8399 20.86C100.088 20.796 100.368 20.764 100.68 20.764C101.096 20.764 101.428 20.816 101.676 20.92C101.932 21.024 102.128 21.176 102.264 21.376C102.4 21.576 102.488 21.824 102.528 22.12C102.576 22.416 102.6 22.76 102.6 23.152V26.98H101.016V23.74C101.016 23.372 101.004 23.08 100.98 22.864C100.956 22.648 100.908 22.488 100.836 22.384C100.764 22.28 100.656 22.216 100.512 22.192C100.368 22.16 100.176 22.144 99.9359 22.144C99.6799 22.144 99.4719 22.176 99.3119 22.24C99.1599 22.296 99.0439 22.392 98.9639 22.528C98.8919 22.656 98.8399 22.828 98.8079 23.044C98.7839 23.252 98.7719 23.508 98.7719 23.812V26.98H97.1879Z" fill="black"/>
<g clip-path="url(#clip0_111_200)">
<path d="M120.278 26.305L124.095 22.48L120.278 18.655L121.453 17.48L126.453 22.48L121.453 27.48L120.278 26.305Z" fill="#080A0A"/>
</g>
<defs>
<radialGradient id="paint0_radial_111_200" cx="0" cy="0" r="1" gradientUnits="userSpaceOnUse" gradientTransform="translate(81.815 22.48) rotate(90) scale(22 81.315)">
<stop offset="0.9999" stop-color="#FFFEF7"/>
<stop offset="1" stop-color="white" stop-opacity="0"/>
</radialGradient>
<clipPath id="clip0_111_200">
<rect width="20" height="20" fill="white" transform="translate(113.12 12.48)"/>
</clipPath>
</defs>
</svg>
